<svg id="visual" viewBox="0 0 960 540" width="960" height="540" xmlns="http://www.w3.org/2000/svg" xmlns:xlink="http://www.w3.org/1999/xlink" version="1.1"><rect x="0" y="0" width="960" height="540" fill="#0d0a20"></rect><path d="M0 388L22.8 381.3C45.7 374.7 91.3 361.3 137 363.7C182.7 366 228.3 384 274 382.5C319.7 381 365.3 360 411.2 352.7C457 345.3 503 351.7 548.8 359.5C594.7 367.3 640.3 376.7 686 378.7C731.7 380.7 777.3 375.3 823 368.2C868.7 361 914.3 352 937.2 347.5L960 343L960 541L937.2 541C914.3 541 868.7 541 823 541C777.3 541 731.7 541 686 541C640.3 541 594.7 541 548.8 541C503 541 457 541 411.2 541C365.3 541 319.7 541 274 541C228.3 541 182.7 541 137 541C91.3 541 45.7 541 22.8 541L0 541Z" fill="#5b42f5"></path><path d="M0 375L22.8 374.8C45.7 374.7 91.3 374.3 137 380.5C182.7 386.7 228.3 399.3 274 400.8C319.7 402.3 365.3 392.7 411.2 393.3C457 394 503 405 548.8 407.8C594.7 410.7 640.3 405.3 686 397C731.7 388.7 777.3 377.3 823 380C868.7 382.7 914.3 399.3 937.2 407.7L960 416L960 541L937.2 541C914.3 541 868.7 541 823 541C777.3 541 731.7 541 686 541C640.3 541 594.7 541 548.8 541C503 541 457 541 411.2 541C365.3 541 319.7 541 274 541C228.3 541 182.7 541 137 541C91.3 541 45.7 541 22.8 541L0 541Z" fill="#3b38bc"></path><path d="M0 420L22.8 424.3C45.7 428.7 91.3 437.3 137 444C182.7 450.7 228.3 455.3 274 448.3C319.7 441.3 365.3 422.7 411.2 412.3C457 402 503 400 548.8 406.5C594.7 413 640.3 428 686 427.8C731.7 427.7 777.3 412.3 823 407.8C868.7 403.3 914.3 409.7 937.2 412.8L960 416L960 541L937.2 541C914.3 541 868.7 541 823 541C777.3 541 731.7 541 686 541C640.3 541 594.7 541 548.8 541C503 541 457 541 411.2 541C365.3 541 319.7 541 274 541C228.3 541 182.7 541 137 541C91.3 541 45.7 541 22.8 541L0 541Z" fill="#242b85"></path><path d="M0 484L22.8 478.5C45.7 473 91.3 462 137 455.2C182.7 448.3 228.3 445.7 274 451C319.7 456.3 365.3 469.7 411.2 475.2C457 480.7 503 478.3 548.8 471.2C594.7 464 640.3 452 686 451.5C731.7 451 777.3 462 823 461.3C868.7 460.7 914.3 448.3 937.2 442.2L960 436L960 541L937.2 541C914.3 541 868.7 541 823 541C777.3 541 731.7 541 686 541C640.3 541 594.7 541 548.8 541C503 541 457 541 411.2 541C365.3 541 319.7 541 274 541C228.3 541 182.7 541 137 541C91.3 541 45.7 541 22.8 541L0 541Z" fill="#171c50"></path><path d="M0 511L22.8 509.3C45.7 507.7 91.3 504.3 137 502.5C182.7 500.7 228.3 500.3 274 496.2C319.7 492 365.3 484 411.2 485.7C457 487.3 503 498.7 548.8 501.3C594.7 504 640.3 498 686 494.8C731.7 491.7 777.3 491.3 823 490.7C868.7 490 914.3 489 937.2 488.5L960 488L960 541L937.2 541C914.3 541 868.7 541 823 541C777.3 541 731.7 541 686 541C640.3 541 594.7 541 548.8 541C503 541 457 541 411.2 541C365.3 541 319.7 541 274 541C228.3 541 182.7 541 137 541C91.3 541 45.7 541 22.8 541L0 541Z" fill="#0d0a20"></path></svg>